<?xml version="1.0" encoding="UTF-8"?>
<svg id="Layer_1" data-name="Layer 1" xmlns="http://www.w3.org/2000/svg" viewBox="0 0 20 80">
  <defs>
    <style>
      .cls-1 {
        fill: #db5a00;
      }

      .cls-1, .cls-2, .cls-3, .cls-4, .cls-5 {
        stroke-width: 0px;
      }

      .cls-2 {
        fill: #ff6a00;
      }

      .cls-3 {
        fill: #ff9e00;
      }

      .cls-4 {
        fill: #fff4b9;
      }

      .cls-5 {
        fill: #ffb900;
      }
    </style>
  </defs>
  <path class="cls-1" d="m5,20H0v50h5v5h5v-10h-5V20Z"/>
  <path class="cls-2" d="m10,70h5v5h5v5h-10v-10Z"/>
  <path class="cls-1" d="m15,20h-5v5h5v-5Z"/>
  <path class="cls-1" d="m15,55h-5v5h5v-5Z"/>
  <path class="cls-5" d="m10,15h10v55h-5v-5h-5v-5h5v-5h-5v5h-5V20h5v5h5v-5h-5v-5Z"/>
  <path class="cls-4" d="m5,60h5v5h-5v-5Z"/>
  <path class="cls-4" d="m15,70v-5h-5v5h5Z"/>
  <path class="cls-4" d="m15,70v5h5v-5h-5Z"/>
  <path class="cls-3" d="m20,10h-10v5h-5v5h5v-5h10v-5Z"/>
</svg>