<?xml version="1.0" encoding="UTF-8"?>
<svg id="Layer_1" data-name="Layer 1" xmlns="http://www.w3.org/2000/svg" viewBox="0 0 20 80">
  <defs>
    <style>
      .cls-1 {
        fill: #db5a00;
      }

      .cls-1, .cls-2, .cls-3, .cls-4, .cls-5 {
        stroke-width: 0px;
      }

      .cls-2 {
        fill: #ff6a00;
      }

      .cls-3 {
        fill: #ff9e00;
      }

      .cls-4 {
        fill: #fff4b9;
      }

      .cls-5 {
        fill: #ffb900;
      }
    </style>
  </defs>
  <path class="cls-1" d="m0,10h5v45h5v20h-5v-5H0V10Z"/>
  <path class="cls-2" d="m10,60h5v5h5v15h-10v-20Z"/>
  <path class="cls-1" d="m15,10h-5v5h5v-5Z"/>
  <path class="cls-1" d="m15,45h-5v5h5v-5Z"/>
  <path class="cls-5" d="m10,5h10v55h-5v-5h-5v-5h5v-5h-5v5h-5V10h5v5h5v-5h-5v-5Z"/>
  <path class="cls-4" d="m5,50h5v5h-5v-5Z"/>
  <path class="cls-4" d="m15,60v-5h-5v5h5Z"/>
  <path class="cls-4" d="m15,60v5h5v-5h-5Z"/>
  <path class="cls-3" d="m20,0h-10v5h-5v5h5v-5h10V0Z"/>
</svg>