<?xml version="1.0" encoding="UTF-8" standalone="no"?>
<!-- Created with Inkscape (http://www.inkscape.org/) -->

<svg
   width="129.06499mm"
   height="129.06502mm"
   viewBox="0 0 129.06499 129.06502"
   version="1.1"
   id="svg5"
   xml:space="preserve"
   inkscape:version="1.2.2 (732a01da63, 2022-12-09)"
   sodipodi:docname="coin.svg"
   xmlns:inkscape="http://www.inkscape.org/namespaces/inkscape"
   xmlns:sodipodi="http://sodipodi.sourceforge.net/DTD/sodipodi-0.dtd"
   xmlns="http://www.w3.org/2000/svg"
   xmlns:svg="http://www.w3.org/2000/svg"><sodipodi:namedview
     id="namedview7"
     pagecolor="#ffffff"
     bordercolor="#000000"
     borderopacity="0.25"
     inkscape:showpageshadow="2"
     inkscape:pageopacity="0.0"
     inkscape:pagecheckerboard="0"
     inkscape:deskcolor="#d1d1d1"
     inkscape:document-units="mm"
     showgrid="false"
     inkscape:zoom="0.914906"
     inkscape:cx="255.21747"
     inkscape:cy="417.52923"
     inkscape:window-width="5120"
     inkscape:window-height="1369"
     inkscape:window-x="-8"
     inkscape:window-y="-8"
     inkscape:window-maximized="1"
     inkscape:current-layer="layer1" /><defs
     id="defs2" /><g
     inkscape:label="Layer 1"
     inkscape:groupmode="layer"
     id="layer1"
     transform="translate(-15.67501,-37.823099)"><g
       id="g310"
       transform="translate(-11.278478,-20.243427)"><path
         style="fill:#fde33a;stroke-width:0.264583"
         d="m 86.944772,186.97032 c 0.190995,-0.0764 0.419198,-0.067 0.507119,0.0209 0.08792,0.0879 -0.06835,0.15046 -0.347266,0.13897 -0.308226,-0.0127 -0.370919,-0.0754 -0.159853,-0.15985 z m 8.73125,0 c 0.190995,-0.0764 0.419201,-0.067 0.507119,0.0209 0.08792,0.0879 -0.06835,0.15046 -0.347266,0.13897 -0.308226,-0.0127 -0.370919,-0.0754 -0.159853,-0.15985 z m -8.946224,-2.09148 c -4.489572,-0.52249 -7.80347,-1.08857 -10.715625,-1.83046 -10.598944,-2.70013 -20.01723,-7.98685 -27.9708,-15.70071 -9.971717,-9.67118 -16.244588,-21.9632 -18.383633,-36.02369 -0.650158,-4.27366 -0.639295,-13.24429 0.02131,-17.5948 2.022989,-13.32274 7.804562,-25.046135 17.056306,-34.585378 9.671185,-9.971717 21.963205,-16.244588 36.023696,-18.383633 4.210299,-0.640519 13.252201,-0.640519 17.462498,0 23.03401,3.5042 41.59583,18.465202 49.79685,40.136721 2.61924,6.92145 3.76526,13.52494 3.76526,21.69584 0,6.44484 -0.402,9.82817 -1.83909,15.47812 -2.69349,10.58959 -7.98434,20.01607 -15.69933,27.9708 -9.59941,9.89771 -22.01122,16.26265 -35.75911,18.33775 -2.637353,0.39808 -11.778088,0.7299 -13.758328,0.49944 z m 9.998448,-12.82369 c 3.243027,-0.35248 7.942854,-1.38917 10.882834,-2.40055 3.38045,-1.16291 9.86731,-4.48227 12.7208,-6.5093 3.25694,-2.31362 9.39937,-8.45606 11.71299,-11.71299 2.02703,-2.85349 5.34639,-9.34035 6.5093,-12.72081 3.51504,-10.21783 3.51504,-22.01972 0,-32.23755 -1.16291,-3.38046 -4.48227,-9.867316 -6.5093,-12.720808 -2.31362,-3.256934 -8.45605,-9.399368 -11.71299,-11.71299 -2.85349,-2.02703 -9.34035,-5.34639 -12.7208,-6.5093 -10.217838,-3.515039 -22.019726,-3.515039 -32.237562,0 -3.380451,1.16291 -9.867312,4.48227 -12.720804,6.5093 -3.256934,2.313622 -9.399368,8.456056 -11.71299,11.71299 -2.027031,2.853492 -5.346391,9.340348 -6.5093,12.720808 -3.51504,10.21783 -3.51504,22.01972 0,32.23755 1.162909,3.38046 4.482269,9.86732 6.5093,12.72081 2.315302,3.2593 8.456657,9.4001 11.71299,11.71194 3.196728,2.26952 9.340326,5.36753 13.096875,6.60431 6.872735,2.26273 14.085563,3.05578 20.978657,2.30659 z m -10.527615,-2.13066 c -8.547433,-0.96735 -17.413028,-4.5993 -24.040238,-9.84849 -8.809879,-6.97801 -14.87263,-16.65434 -17.189644,-27.43518 -3.721738,-17.31688 2.403933,-35.167785 15.962173,-46.515594 7.247213,-6.065685 16.11456,-9.834419 25.588011,-10.875227 17.772807,-1.952623 35.824337,6.812138 45.268197,21.979572 8.7305,14.021739 9.68826,31.170489 2.56599,45.944289 -1.89125,3.92305 -3.73493,6.79964 -6.39532,9.97824 -10.19239,12.17775 -26.05657,18.54953 -41.759169,16.77239 z M 100.6998,157.20023 c 0.46124,-0.46124 0.46124,-68.753767 0,-69.215005 -0.45471,-0.45471 -17.960292,-0.45471 -18.415002,0 -0.461238,0.461238 -0.461238,68.753765 0,69.215005 0.45471,0.45471 17.960292,0.45471 18.415002,0 z M 84.083964,122.59273 V 89.784392 h 7.408334 7.408334 v 32.808338 32.80833 h -7.408334 -7.408334 z m -37.199097,46.7651 -0.504028,-0.59531 0.595312,0.50403 c 0.327422,0.27721 0.595313,0.5451 0.595313,0.59531 0,0.21173 -0.212936,0.0554 -0.686597,-0.50403 z m 88.925143,0.0661 c 0.26339,-0.29105 0.53842,-0.52917 0.61118,-0.52917 0.0728,0 -0.0832,0.23812 -0.3466,0.52917 -0.26339,0.29104 -0.53842,0.52916 -0.61118,0.52916 -0.0728,0 0.0832,-0.23812 0.3466,-0.52916 z m 0.92604,-0.89365 c 0,-0.0549 0.20836,-0.2633 0.46302,-0.46302 0.41965,-0.32911 0.429,-0.31975 0.0999,0.0999 -0.34565,0.44073 -0.56292,0.58089 -0.56292,0.36313 z m -92.232433,-1.55375 -0.504029,-0.59531 0.595313,0.50403 c 0.559447,0.47366 0.715762,0.68659 0.504028,0.68659 -0.05021,0 -0.318097,-0.26789 -0.595312,-0.59531 z m 93.687643,0.0661 c 0.26339,-0.29105 0.53842,-0.52917 0.61118,-0.52917 0.0728,0 -0.0832,0.23812 -0.3466,0.52917 -0.26339,0.29104 -0.53842,0.52916 -0.61118,0.52916 -0.0728,0 0.0832,-0.23812 0.3466,-0.52916 z M 26.954851,126.9363 c 0.0127,-0.30822 0.07539,-0.37092 0.159853,-0.15985 0.07643,0.19099 0.06703,0.4192 -0.02089,0.50712 -0.08792,0.0879 -0.150453,-0.0683 -0.138965,-0.34727 z m 128.852089,0 c 0.0127,-0.30822 0.0754,-0.37092 0.15985,-0.15985 0.0764,0.19099 0.067,0.4192 -0.0209,0.50712 -0.0879,0.0879 -0.15045,-0.0683 -0.13896,-0.34727 z M 26.954851,118.20505 c 0.0127,-0.30822 0.07539,-0.37092 0.159853,-0.15985 0.07643,0.19099 0.06703,0.4192 -0.02089,0.50712 -0.08792,0.0879 -0.150453,-0.0683 -0.138965,-0.34727 z m 128.852089,0 c 0.0127,-0.30822 0.0754,-0.37092 0.15985,-0.15985 0.0764,0.19099 0.067,0.4192 -0.0209,0.50712 -0.0879,0.0879 -0.15045,-0.0683 -0.13896,-0.34727 z M 44.528755,78.142725 c 0.263389,-0.291041 0.538421,-0.529166 0.611181,-0.529166 0.07276,0 -0.08321,0.238125 -0.346597,0.529166 -0.26339,0.291042 -0.538421,0.529167 -0.611181,0.529167 -0.07276,0 0.08321,-0.238125 0.346597,-0.529167 z m 93.637365,-0.06615 -0.50403,-0.595312 0.59531,0.504028 c 0.55945,0.473662 0.71576,0.686597 0.50403,0.686597 -0.0502,0 -0.3181,-0.267891 -0.59531,-0.595313 z m -91.256115,-2.3151 c 0.263389,-0.291041 0.538421,-0.529166 0.611181,-0.529166 0.07276,0 -0.08321,0.238125 -0.346597,0.529166 -0.263389,0.291042 -0.538421,0.529167 -0.611181,0.529167 -0.07276,0 0.08321,-0.238125 0.346597,-0.529167 z m 88.874865,-0.06615 -0.50403,-0.595312 0.59531,0.504028 c 0.55945,0.473662 0.71576,0.686597 0.50403,0.686597 -0.0502,0 -0.3181,-0.267891 -0.59531,-0.595313 z M 86.944772,58.118235 c 0.190995,-0.07643 0.419198,-0.06703 0.507119,0.02089 0.08792,0.08792 -0.06835,0.150453 -0.347266,0.138964 -0.308226,-0.0127 -0.370919,-0.07539 -0.159853,-0.159852 z m 8.73125,0 c 0.190995,-0.07643 0.419201,-0.06703 0.507119,0.02089 0.08792,0.08792 -0.06835,0.150453 -0.347266,0.138964 -0.308226,-0.0127 -0.370919,-0.07539 -0.159853,-0.159852 z"
         id="path314" /><path
         style="fill:#060502;stroke-width:0.264583"
         d="m 86.729798,186.99872 c -6.583193,-0.75167 -10.719467,-1.57973 -15.137273,-3.03041 -9.867401,-3.24016 -18.416977,-8.48482 -25.707619,-15.77011 -9.927828,-9.92054 -16.138263,-22.32664 -18.326614,-36.60964 -0.585593,-3.82207 -0.661217,-13.517 -0.133119,-17.06563 2.242668,-15.069912 8.28983,-27.365774 18.460693,-37.536636 10.170862,-10.170862 22.466725,-16.218024 37.53664,-18.460692 3.548626,-0.528099 13.243558,-0.452474 17.065624,0.133119 14.283,2.188351 26.6891,8.398786 36.60964,18.326614 10.17105,10.178523 16.22068,22.479076 18.46165,37.537595 0.5281,3.54863 0.45248,13.24356 -0.13312,17.06563 -2.18436,14.25698 -8.1862,26.30716 -18.10108,36.34237 -9.86749,9.98726 -22.0591,16.22837 -36.04334,18.45124 -3.148225,0.50043 -12.20749,0.88426 -14.552082,0.61655 z m 13.758332,-2.61932 c 25.02647,-3.77748 45.2755,-22.00001 51.45844,-46.30855 1.43709,-5.64995 1.83909,-9.03328 1.83909,-15.47812 0,-6.44485 -0.402,-9.82818 -1.83909,-15.47813 -2.69349,-10.58959 -7.98434,-20.016067 -15.69933,-27.970798 -9.67118,-9.971717 -21.9632,-16.244588 -36.02369,-18.383633 -4.210301,-0.640519 -13.252203,-0.640519 -17.462502,0 -14.060491,2.139045 -26.352511,8.411916 -36.023696,18.383633 -9.251744,9.539243 -15.033317,21.262638 -17.056306,34.585378 -0.660601,4.35051 -0.671464,13.32114 -0.02131,17.5948 2.901644,19.07325 13.772016,35.33819 30.058831,44.97592 8.281088,4.90034 15.729459,7.26599 27.011226,8.57894 1.98024,0.23046 11.120975,-0.10136 13.758337,-0.49944 z M 85.936048,172.04116 c -5.67603,-0.64238 -11.3854,-2.38946 -16.933334,-5.18161 -5.178465,-2.60621 -8.136316,-4.77257 -12.570495,-9.20675 -4.487529,-4.48752 -6.630635,-7.43076 -9.249505,-12.70278 -2.273855,-4.57749 -3.263207,-7.29137 -4.203353,-11.53018 -1.996821,-9.00302 -1.49115,-18.3932 1.451063,-26.94589 1.162909,-3.38046 4.482269,-9.867316 6.5093,-12.720808 2.313622,-3.256934 8.456056,-9.399368 11.71299,-11.71299 2.853492,-2.02703 9.340353,-5.34639 12.720804,-6.5093 10.217836,-3.515039 22.019724,-3.515039 32.237562,0 3.38045,1.16291 9.86731,4.48227 12.7208,6.5093 3.25694,2.313622 9.39937,8.456056 11.71299,11.71299 2.02703,2.853492 5.34639,9.340348 6.5093,12.720808 3.51504,10.21783 3.51504,22.01972 0,32.23755 -1.16291,3.38046 -4.48227,9.86732 -6.5093,12.72081 -2.31362,3.25693 -8.45605,9.39937 -11.71299,11.71299 -2.85349,2.02703 -9.34035,5.34639 -12.7208,6.5093 -6.56648,2.25894 -14.796159,3.16507 -21.675032,2.38656 z m 10.527615,-2.10571 c 12.400077,-1.36234 23.571767,-7.3154 31.496137,-16.78335 8.27768,-9.89008 12.26208,-22.90761 10.87523,-35.53074 -1.36235,-12.40008 -7.31541,-23.571768 -16.78336,-31.496134 -7.24721,-6.065685 -16.11456,-9.834419 -25.588007,-10.875227 -17.772804,-1.952623 -35.824336,6.812138 -45.268193,21.979572 -7.542007,12.112939 -9.322901,26.733669 -4.909522,40.306039 0.991074,3.04783 3.505183,8.26744 5.328286,11.06221 9.710332,14.88564 27.319777,23.26354 44.849429,21.33763 z M 82.284798,157.20023 c -0.461238,-0.46124 -0.461238,-68.753767 0,-69.215005 0.45471,-0.45471 17.960292,-0.45471 18.415002,0 0.46124,0.461238 0.46124,68.753765 0,69.215005 -0.45471,0.45471 -17.960292,0.45471 -18.415002,0 z m 16.615834,-34.6075 V 89.784392 h -7.408334 -7.408334 v 32.808338 32.80833 h 7.408334 7.408334 z"
         id="path312" /></g></g></svg>
