<?xml version="1.0" encoding="UTF-8"?>
<svg id="Layer_1" data-name="Layer 1" xmlns="http://www.w3.org/2000/svg" viewBox="0 0 68 68">
  <defs>
    <style>
      .cls-1, .cls-2, .cls-3, .cls-4, .cls-5 {
        stroke-width: 0px;
      }

      .cls-2 {
        fill: #764d2c;
      }

      .cls-3 {
        fill: #c69a82;
      }

      .cls-4 {
        fill: #7e3f8e;
      }

      .cls-5 {
        fill-rule: evenodd;
      }
    </style>
  </defs>
  <path class="cls-1" d="m42,0h-16v4h16V0Z"/>
  <path class="cls-1" d="m50,12h-4v-4h-4v-4h8v8Z"/>
  <path class="cls-1" d="m50,20v-8h4v8h-4Z"/>
  <path class="cls-1" d="m46,36v-16h4v16h-4Z"/>
  <path class="cls-5" d="m26,32v4h20v4h-4v28h-12v-4h-4v-8h-4v-4h-4v-8h-4v-4h-4v-12h4V12h4V4h8v4h-4v4h-4v16h4v-4h4v4h4v4h-4Zm-4,0h4v-4h-4v4Zm0,12v-12h-4v-4h-4v12h4v4h4Zm4,0h-4v8h16v-4h-12v-4Zm0,0h4v-4h-4v4Zm4,20v-8h8v8h-8Zm8-24v4h-4v-4h4Z"/>
  <path class="cls-1" d="m42,24h-4v8h4v-8Z"/>
  <path class="cls-4" d="m26,40h4v4h-4v-4Z"/>
  <path class="cls-4" d="m26,48v-4h-4v8h8v-4h-4Z"/>
  <path class="cls-4" d="m38,60v-4h-8v4h8Z"/>
  <path class="cls-2" d="m42,4h-16v4h-4v4h-4v16h4v-4h4v4h4v8h4v-4h4v-12h12v-8h-4v-4h-4v-4Z"/>
  <path class="cls-2" d="m18,28h-4v12h4v4h4v-12h-4v-4Z"/>
  <path class="cls-3" d="m38,20h8v16h-12v-4h8v-8h-4v-4Z"/>
  <path class="cls-3" d="m30,32v4h-4v-4h-4v-4h4v4h4Z"/>
  <path class="cls-3" d="m38,40h-4v4h4v-4Z"/>
  <path class="cls-3" d="m30,48v4h8v-4h-8Z"/>
  <path class="cls-3" d="m30,60v4h8v-4h-8Z"/>
</svg>