<?xml version="1.0" encoding="UTF-8" standalone="no"?>
<!-- Created with Inkscape (http://www.inkscape.org/) -->

<svg
   width="60.0215mm"
   height="111.73185mm"
   viewBox="0 0 60.0215 111.73185"
   version="1.1"
   id="svg1"
   xml:space="preserve"
   inkscape:version="1.3.2 (091e20e, 2023-11-25, custom)"
   sodipodi:docname="mario.svg"
   xmlns:inkscape="http://www.inkscape.org/namespaces/inkscape"
   xmlns:sodipodi="http://sodipodi.sourceforge.net/DTD/sodipodi-0.dtd"
   xmlns="http://www.w3.org/2000/svg"
   xmlns:svg="http://www.w3.org/2000/svg"><sodipodi:namedview
     id="namedview1"
     pagecolor="#ffffff"
     bordercolor="#000000"
     borderopacity="0.25"
     inkscape:showpageshadow="2"
     inkscape:pageopacity="0.0"
     inkscape:pagecheckerboard="0"
     inkscape:deskcolor="#d1d1d1"
     inkscape:document-units="mm"
     inkscape:zoom="0.69219276"
     inkscape:cx="75.845925"
     inkscape:cy="224.64841"
     inkscape:window-width="1920"
     inkscape:window-height="991"
     inkscape:window-x="-9"
     inkscape:window-y="-9"
     inkscape:window-maximized="1"
     inkscape:current-layer="layer1" /><defs
     id="defs1" /><g
     inkscape:label="Layer 1"
     inkscape:groupmode="layer"
     id="layer1"
     transform="translate(-84.771724,-88.907834)"><g
       id="g1"
       transform="translate(9.9382235,-4.5868727)"><path
         style="fill:#fcc97e"
         d="m 114.82297,195.27833 c 0,-1.10596 0.0357,-1.55839 0.0793,-1.00541 0.0436,0.55297 0.0436,1.45785 0,2.01083 -0.0436,0.55298 -0.0793,0.10054 -0.0793,-1.00542 z m 12.88828,-13.91391 c 0.55298,-0.0436 1.45785,-0.0436 2.01083,0 0.55298,0.0436 0.10054,0.0793 -1.00541,0.0793 -1.10596,0 -1.5584,-0.0357 -1.00542,-0.0793 z m -24.81792,-12.01525 v -7.9375 h 2.01084 2.01083 V 159.40083 157.39 h 3.91583 3.91584 v 2.01083 2.01084 h 2.01083 2.01083 v 5.92666 5.92667 h -2.01083 -2.01083 v 2.01083 2.01084 H 108.82 102.89333 Z m 11.85334,-5.92667 v -2.01083 h -2.01084 -2.01083 v 2.01083 2.01083 h 2.01083 2.01084 z m 8.04333,9.94833 V 169.455 h 2.01083 2.01084 v 3.91583 3.91584 H 124.80083 122.79 Z m -23.918333,-26.035 V 145.325 H 96.860833 94.85 v -1.90033 -1.90033 l -3.96875,-0.0576 -3.96875,-0.0576 -0.06076,-1.95008 -0.06076,-1.95008 -1.950077,-0.0607 -1.950078,-0.0608 -0.05626,-5.87375 -0.05627,-5.87375 h 4.025015 4.025015 v 3.90789 3.90789 l 1.957917,0.0609 1.957917,0.0609 0.06086,1.95792 0.06086,1.95791 h 2.00289 2.002891 v -2.01083 -2.01083 h 2.01083 2.01083 v -2.0109 -2.01083 h -2.01083 -2.01083 v -3.91583 -3.91584 h 2.01083 2.01083 v -2.01083 -2.01083 h 7.9375 7.9375 v 6.0325 6.0325 h 6.0325 6.0325 v 3.91583 3.91583 h -2.01083 -2.01083 v 2.01413 2.01413 l -5.97959,-0.0562 -5.97958,-0.0562 -0.0609,-1.95792 -0.0609,-1.95792 h -1.89706 -1.89705 v -2.01083 -2.01083 H 108.82 106.70333 v 2.01083 2.01083 h -2.01083 -2.01083 v 2.01084 2.01083 h 4.02166 4.02167 v 2.01083 2.01084 h 4.02167 4.02166 v 1.905 1.905 H 108.82 98.871667 Z m 15.875003,-21.80961 v -4.13544 l -1.95792,0.0609 -1.95792,0.0609 -0.058,3.80288 c -0.0319,2.09159 -0.0111,3.92515 0.0463,4.07459 0.0742,0.1934 0.65515,0.2717 2.0159,0.2717 h 1.91165 z m -3.932,-16.25618 c -0.0598,-0.15581 -0.0806,-1.03687 -0.0463,-1.95791 l 0.0624,-1.67463 1.95008,-0.0607 1.95008,-0.0608 0.0607,-1.95008 0.0608,-1.95008 3.96875,-0.0576 3.96875,-0.0576 v 2.00756 2.00756 l 1.85208,0.0795 c 1.01865,0.0437 0.11377,0.0357 -2.01083,-0.0178 l -3.86292,-0.0974 v 2.0366 2.0366 h -3.92247 c -3.08088,0 -3.9458,-0.0608 -4.03119,-0.28329 z m -3.00009,-15.750268 c 2.7649,-0.03342 7.28927,-0.03342 10.05417,0 2.7649,0.03342 0.50271,0.06077 -5.02708,0.06077 -5.5298,0 -7.79198,-0.02735 -5.02709,-0.06077 z"
         id="path7" /><path
         style="fill:#f24134"
         d="m 91.04,197.29094 v -3.91761 h 9.8425 9.8425 v 2.01084 2.01083 h 2.01907 2.01908 l -0.0612,1.85208 -0.0612,1.85208 -11.80041,0.0547 -11.80042,0.0547 z m 3.81,-22.01511 V 173.265 h -3.915833 -3.915834 v -2.01083 -2.01084 H 85.0075 82.996667 v -9.8425 -9.8425 h 2.010833 2.010833 v -2.01083 -2.01083 h 1.799167 1.799167 v 4.02166 4.02167 h 4.013723 4.013724 l 0.06086,1.95792 0.06086,1.95791 1.957916,0.0609 1.95792,0.0609 v 1.89706 1.89706 H 100.67083 98.66 v 7.9375 7.9375 H 96.755 94.85 Z m 28.15167,-11.95916 v -1.905 h -2.00317 -2.00317 l -0.0606,-2.06375 -0.0606,-2.06375 -1.95792,-0.0609 -1.95792,-0.0609 V 155.37122 153.58 h 3.80206 3.80206 l 0.0609,1.95792 0.0609,1.95791 1.95791,0.0609 1.95792,0.0609 v 3.80206 3.80206 h -1.79917 -1.79916 z M 78.975,121.5125 v -3.91583 h 2.010833 2.010834 v -1.90033 -1.90033 l 3.96875,-0.0576 3.96875,-0.0576 0.06086,-1.95791 0.06086,-1.95792 H 92.952943 94.85 v -2.01083 -2.01084 h 2.010833 2.010834 v -2.01083 -2.01083 h 2.010833 2.01083 v -2.010835 -2.010833 h 9.8425 9.8425 v 1.900225 1.900223 l -3.86291,0.0577 -3.86292,0.0577 -0.0608,1.95008 -0.0607,1.95008 -1.95008,0.0608 -1.95008,0.0607 v 1.905 1.905 l -2.06375,-0.067 -2.06375,-0.067 v 2.02022 2.02022 l -3.96875,0.0576 -3.968747,0.0576 -0.06076,1.95008 -0.06076,1.95007 -1.950078,0.0608 -1.950077,0.0607 -0.06086,1.95792 -0.06086,1.95792 H 88.703724 82.785 v 2.01083 2.01083 H 80.88 78.975 Z"
         id="path6" /><path
         style="fill:#d93b2f"
         d="m 90.915789,197.28917 c 2.22e-4,-2.0955 0.0319,-2.92412 0.07039,-1.84138 0.03849,1.08274 0.03831,2.79724 -4.04e-4,3.81 -0.03871,1.01276 -0.07021,0.12688 -0.06999,-1.96862 z m 7.840234,-27.94 c -6.2e-5,-4.42384 0.02801,-6.26367 0.06238,-4.08852 0.03437,2.17515 0.03443,5.79465 1.14e-4,8.04333 -0.03431,2.24869 -0.06244,0.46902 -0.0625,-3.95481 z m 24.124037,-4.19811 c -0.0596,-0.15526 -0.076,-1.08394 -0.0364,-2.06375 l 0.0719,-1.78148 0.0431,1.94968 0.0431,1.94967 1.85208,0.0705 1.85208,0.0705 -1.85872,0.0435 c -1.38544,0.0324 -1.88631,-0.0284 -1.96705,-0.23875 z m -4.0682,-5.68937 -0.0435,-2.0558 -1.95791,-0.0699 -1.95792,-0.0699 1.96456,-0.0439 c 1.47067,-0.0329 1.9917,0.0268 2.07252,0.23741 0.0594,0.15473 0.076,1.13105 0.0369,2.16958 l -0.0711,1.88825 z m 3.85653,-2.1423 c -0.0596,-0.15525 -0.0795,-1.08394 -0.0443,-2.06375 l 0.064,-1.78147 0.1039,2.06422 c 0.10319,2.05024 0.0843,2.32262 -0.12355,1.781 z M 98.736305,155.485 c 0,-1.10596 0.03567,-1.5584 0.07928,-1.00542 0.0436,0.55298 0.0436,1.45786 0,2.01084 -0.0436,0.55298 -0.07928,0.10054 -0.07928,-1.00542 z m -8.031039,-5.92667 c 0,-2.27012 0.03114,-3.19881 0.0692,-2.06375 0.03806,1.13507 0.03806,2.99244 0,4.1275 -0.03806,1.13507 -0.0692,0.20638 -0.0692,-2.06375 z m 4.026996,-30.1625 0.0119,-1.905 1.950077,-0.0607 1.950078,-0.0608 0.06076,-1.95007 0.06076,-1.95008 3.915833,-0.007 3.91583,-0.007 -3.85504,0.0646 -3.855026,0.0646 -0.0608,1.95328 -0.0608,1.95327 -1.950077,0.0608 -1.950078,0.0608 -0.07266,1.84424 -0.07266,1.84424 z m -7.774727,-5.76555 3.855035,-0.0646 0.07341,-1.90089 0.07341,-1.9009 -0.01261,1.95845 -0.01261,1.95845 -3.915834,0.007 -3.915833,0.007 z m 20.758315,-4.23324 c 0.61509,-0.0429 1.56759,-0.0424 2.11666,10e-4 0.54908,0.0434 0.0458,0.0785 -1.11834,0.078 -1.16417,-5.5e-4 -1.61341,-0.0361 -0.99832,-0.079 z m 14.93879,-9.792038 c 0,-1.105959 0.0357,-1.558396 0.0793,-1.005417 0.0436,0.552979 0.0436,1.457855 0,2.010835 -0.0436,0.55298 -0.0793,0.10054 -0.0793,-1.005418 z"
         id="path5" /><path
         style="fill:#605f5f"
         d="m 86.902576,197.395 c 0,-4.36563 0.02815,-6.15156 0.06255,-3.96875 0.0344,2.18281 0.0344,5.75469 0,7.9375 -0.0344,2.18281 -0.06255,0.39687 -0.06255,-3.96875 z m 28.856604,-0.1563 c 0.61509,-0.0429 1.56759,-0.0424 2.11667,0.001 0.54907,0.0435 0.0458,0.0785 -1.11835,0.078 -1.16417,-5.5e-4 -1.61341,-0.0361 -0.99832,-0.079 z m 1.16806,-4.0233 c 1.14111,-0.0381 2.95086,-0.038 4.02167,3.7e-4 1.07081,0.0383 0.13717,0.0695 -2.07474,0.0693 -2.21192,-2e-4 -3.08804,-0.0316 -1.94693,-0.0697 z m -34.092013,-11.74037 -0.05023,-7.98248 -1.957917,-0.0609 -1.957916,-0.0609 V 161.41167 149.4525 l 1.950077,-0.0608 1.950078,-0.0607 0.06076,-1.95008 0.06076,-1.95008 1.950347,-0.0608 1.950346,-0.0608 0.07262,-2.00348 0.07262,-2.00348 -0.01213,2.06424 -0.01213,2.06424 -1.950077,0.0608 -1.950078,0.0608 -0.06076,1.95007 -0.06076,1.95008 -1.957916,0.0609 -1.957917,0.0609 v 11.84539 11.84539 h 1.911643 c 1.337272,0 1.942245,0.0798 2.013495,0.26542 0.05602,0.14598 0.07563,3.78929 0.04358,8.09625 l -0.05827,7.83083 z m 19.942973,-4.24212 c -0.056,-0.14598 -0.0756,-3.78929 -0.0436,-8.09625 l 0.0583,-7.83083 0.0502,7.98712 0.0502,7.98712 5.97959,0.0597 5.97958,0.0596 -5.98623,0.0495 c -4.6407,0.0384 -6.00912,-0.0102 -6.08807,-0.21594 z m 21.12944,0.10958 c 0.55649,-0.0437 1.41374,-0.0432 1.905,0.001 0.49125,0.0444 0.0359,0.0802 -1.01181,0.0795 -1.04775,-6.4e-4 -1.44969,-0.037 -0.89319,-0.0807 z m -8.14846,-4.02212 c 0.61509,-0.0429 1.56759,-0.0424 2.11667,0.001 0.54907,0.0435 0.0458,0.0785 -1.11835,0.078 -1.16417,-5.5e-4 -1.61341,-0.0361 -0.99832,-0.079 z m -4.95687,-9.89787 c 5.5e-4,-1.16417 0.0361,-1.61341 0.079,-0.99832 0.0429,0.61509 0.0424,1.56759 -0.001,2.11666 -0.0434,0.54908 -0.0785,0.0458 -0.078,-1.11834 z m -4.02267,-3.91583 c 0,-1.10596 0.0357,-1.5584 0.0793,-1.00542 0.0436,0.55298 0.0436,1.45785 0,2.01083 -0.0436,0.55298 -0.0793,0.10054 -0.0793,-1.00541 z m 21.04454,-2.0613 c 0.61509,-0.0429 1.56759,-0.0424 2.11667,0.001 0.54907,0.0435 0.0458,0.0785 -1.11835,0.078 -1.16417,-5.5e-4 -1.61341,-0.0361 -0.99832,-0.079 z m -4.02167,-4.02167 c 0.61509,-0.0429 1.56759,-0.0424 2.11667,0.001 0.54908,0.0434 0.0458,0.0785 -1.11835,0.078 -1.16416,-5.5e-4 -1.61341,-0.0361 -0.99832,-0.079 z m -20.00959,-4.02393 c 2.76489,-0.0334 7.28927,-0.0334 10.05416,0 2.7649,0.0334 0.50271,0.0608 -5.02708,0.0608 -5.52979,0 -7.79198,-0.0274 -5.02708,-0.0608 z m -7.930408,-4.0194 c 0.61509,-0.0429 1.56759,-0.0424 2.116667,0.001 0.549076,0.0435 0.04582,0.0785 -1.118346,0.078 -1.164166,-5.5e-4 -1.613411,-0.0361 -0.998321,-0.079 z m 14.906418,-1.90745 0.0439,-2.06375 0.0698,1.95327 0.0698,1.95328 3.96087,0.0625 3.96087,0.0625 -4.07459,0.0479 -4.07458,0.048 z m 13.03358,1.90745 c 0.61509,-0.0429 1.56759,-0.0424 2.11667,0.001 0.54908,0.0435 0.0458,0.0785 -1.11835,0.078 -1.16416,-5.5e-4 -1.61341,-0.0361 -0.99832,-0.079 z m -40.939201,-5.98204 c 0,-1.22237 0.03498,-1.72243 0.07774,-1.11125 0.04276,0.61119 0.04276,1.61132 0,2.2225 -0.04276,0.61119 -0.07774,0.11113 -0.07774,-1.11125 z m 19.895661,0.10584 c 5.5e-4,-1.16417 0.0361,-1.61341 0.079,-0.99832 0.0429,0.61509 0.0424,1.56759 -0.001,2.11666 -0.0434,0.54908 -0.0785,0.0458 -0.078,-1.11834 z m -23.995637,-7.92956 v -5.91872 l -1.957916,-0.0609 -1.957917,-0.0609 -0.007,-3.91584 -0.007,-3.91583 0.06459,3.86292 0.06459,3.86291 H 76.968837 78.975 v 6.0325 c 0,3.31788 -0.04762,6.0325 -0.105833,6.0325 -0.05821,0 -0.105834,-2.66342 -0.105834,-5.91872 z m 28.017307,3.90789 c 5.5e-4,-1.16417 0.0361,-1.61341 0.079,-0.99832 0.0429,0.61509 0.0424,1.56759 -0.001,2.11667 -0.0435,0.54907 -0.0785,0.0458 -0.078,-1.11835 z m 4.02167,0 c 5.5e-4,-1.16417 0.0361,-1.61341 0.079,-0.99832 0.0429,0.61509 0.0424,1.56759 -0.001,2.11667 -0.0434,0.54907 -0.0785,0.0458 -0.078,-1.11835 z m 23.84102,-1.90245 v -3.91329 l -7.99041,-0.0581 -7.99042,-0.0581 8.09625,-0.0503 8.09625,-0.0503 v 4.02167 c 0,2.21191 -0.0476,4.02166 -0.10583,4.02166 -0.0582,0 -0.10584,-1.76098 -0.10584,-3.91328 z m -31.88436,-2.11922 c 5.5e-4,-1.16416 0.0361,-1.61341 0.079,-0.99832 0.0429,0.61509 0.0424,1.56759 -0.001,2.11667 -0.0434,0.54908 -0.0785,0.0458 -0.078,-1.11835 z m 8.06015,-2.07086 c -0.0573,-0.14944 -0.0782,-1.983 -0.0463,-4.07459 l 0.058,-3.80288 1.95845,-0.0126 1.95845,-0.0126 -1.90553,0.0735 -1.90553,0.0735 v 3.89995 3.89994 l 1.95791,0.0699 1.95792,0.0699 -1.96456,0.0439 c -1.43679,0.0321 -1.99257,-0.0291 -2.06882,-0.22777 z M 84.742917,125.4822 c 1.135062,-0.0381 2.992437,-0.0381 4.1275,0 1.135062,0.0381 0.206375,0.0692 -2.06375,0.0692 -2.270125,0 -3.198813,-0.0311 -2.06375,-0.0692 z m 40.005003,0 c 1.13506,-0.0381 2.99243,-0.0381 4.1275,0 1.13506,0.0381 0.20637,0.0692 -2.06375,0.0692 -2.27013,0 -3.19882,-0.0311 -2.06375,-0.0692 z m -23.92617,-4.02135 1.84425,-0.0704 0.0697,-1.94979 0.0697,-1.94979 0.0439,2.06375 0.0439,2.06375 -1.95791,-0.0435 -1.95792,-0.0435 z m 23.92617,-3.1e-4 c 1.13506,-0.0381 2.99243,-0.0381 4.1275,0 1.13506,0.0381 0.20637,0.0692 -2.06375,0.0692 -2.27013,0 -3.19882,-0.0311 -2.06375,-0.0692 z m -45.90728,-5.87471 c 5.52e-4,-1.16416 0.0361,-1.61341 0.07899,-0.99832 0.04289,0.61509 0.04244,1.56759 -0.001,2.11667 -0.04344,0.54908 -0.07854,0.0458 -0.07799,-1.11835 z m 55.88,0 c 5.5e-4,-1.16416 0.0361,-1.61341 0.079,-0.99832 0.0429,0.61509 0.0424,1.56759 -0.001,2.11667 -0.0435,0.54908 -0.0785,0.0458 -0.078,-1.11835 z m -51.859335,-4.1275 c 0,-1.10595 0.03567,-1.55839 0.07928,-1.00541 0.0436,0.55298 0.0436,1.45785 0,2.01083 -0.0436,0.55298 -0.07928,0.10054 -0.07928,-1.00542 z m 8.97954,-5.87129 c 0.61509,-0.0429 1.56759,-0.0424 2.116667,0.001 0.549077,0.0434 0.04582,0.0785 -1.118345,0.078 -1.164167,-5.5e-4 -1.613412,-0.0361 -0.998322,-0.079 z m 4.021667,-4.02167 c 0.61509,-0.0429 1.56759,-0.0424 2.116667,0.001 0.549076,0.0434 0.04582,0.0785 -1.118346,0.078 -1.164166,-5.5e-4 -1.613411,-0.0361 -0.998321,-0.079 z m 4.853398,-4.022971 1.95008,-0.06974 0.0697,-1.950078 0.0697,-1.950077 0.0439,2.06375 0.0439,2.06375 -2.06375,-0.04393 -2.063747,-0.04393 z m 22.97367,0.002 c 0.55298,-0.0436 1.45786,-0.0436 2.01084,0 0.55298,0.0436 0.10054,0.07928 -1.00542,0.07928 -1.10596,0 -1.5584,-0.03568 -1.00542,-0.07928 z"
         id="path4" /><path
         style="fill:#a52c24"
         d="m 86.84975,171.42086 -0.04308,-1.94997 -1.957917,-0.0609 -1.957917,-0.0609 -0.05499,-10.00125 -0.05499,-10.00125 h 2.004963 2.004963 l 0.07416,-1.95792 0.07416,-1.95792 -0.0133,2.01084 -0.01331,2.01083 -1.957917,0.0609 -1.957916,0.0609 v 9.83456 9.83455 h 1.911643 c 1.397959,0 1.94075,0.0759 2.019963,0.28228 0.05957,0.15525 0.07597,1.08394 0.03644,2.06375 l -0.07188,1.78147 z M 126.6,161.52574 v -3.90759 l -1.85208,-0.0706 -1.85209,-0.0705 1.95792,-0.0435 1.95792,-0.0435 v 4.02167 c 0,2.21191 -0.0476,4.02166 -0.10584,4.02166 -0.0582,0 -0.10583,-1.75841 -0.10583,-3.90759 z m -23.87525,-1.95821 -0.0431,-1.94998 -1.95792,-0.0698 -1.957917,-0.0699 1.964557,-0.0439 c 1.47385,-0.033 1.99162,0.0266 2.07288,0.23835 0.0596,0.15525 0.076,1.08394 0.0364,2.06375 l -0.0719,1.78147 z m 12.11585,-4.18836 0.0119,-1.905 3.91583,-0.007 3.91584,-0.007 -3.85504,0.0646 -3.85503,0.0646 -0.0727,1.84744 -0.0727,1.84745 z m -22.043356,-1.9571 c 1.141109,-0.0381 2.950859,-0.038 4.021667,3.7e-4 1.070807,0.0383 0.137172,0.0695 -2.074744,0.0693 -2.211917,-2e-4 -3.088032,-0.0316 -1.946923,-0.0697 z m -7.101827,-31.962 c 1.658937,-0.0358 4.373562,-0.0358 6.0325,0 1.658937,0.0358 0.301625,0.065 -3.01625,0.065 -3.317875,0 -4.675188,-0.0293 -3.01625,-0.065 z m -2.83311,-5.87424 c 5.51e-4,-1.16416 0.0361,-1.61341 0.07899,-0.99832 0.04289,0.61509 0.04244,1.56759 -0.001,2.11667 -0.04344,0.54908 -0.07854,0.0458 -0.07799,-1.11835 z m 8.86561,-5.97641 c 0.552979,-0.0436 1.457854,-0.0436 2.010833,0 0.552979,0.0436 0.100542,0.0793 -1.005417,0.0793 -1.105958,0 -1.558396,-0.0357 -1.005416,-0.0793 z m 4.134595,-4.02238 c 0.61509,-0.0429 1.56759,-0.0424 2.116667,0.001 0.549076,0.0434 0.04582,0.0785 -1.118346,0.078 -1.164166,-5.5e-4 -1.613411,-0.0361 -0.998321,-0.079 z m 4.021667,-4.02167 c 0.615091,-0.0429 1.567591,-0.0424 2.116671,0.001 0.54907,0.0434 0.0458,0.0785 -1.11835,0.078 -1.164167,-5.5e-4 -1.613411,-0.0361 -0.998321,-0.079 z"
         id="path3" /><path
         style="fill:#601f17"
         d="m 102.84042,201.25879 11.90625,-0.0573 v -1.89531 -1.89531 l -1.95792,-0.0609 -1.95792,-0.0608 -0.0608,-1.95585 -0.0608,-1.95585 -9.8875,-0.0581 -9.887503,-0.0581 9.948333,0.003 9.94833,0.003 0.0608,1.95008 0.0608,1.95007 1.95007,0.0608 1.95008,0.0608 v 2.01083 2.01083 l -11.95917,0.003 -11.959163,0.003 z m -17.938753,-11.90712 -2.010834,-0.13064 1.945425,-0.0405 c 1.114678,-0.0232 2.001287,0.0499 2.076242,0.17115 0.07195,0.11641 0.101383,0.19343 0.06541,0.17115 -0.03597,-0.0223 -0.970284,-0.0993 -2.076242,-0.17115 z m 39.841613,-0.15304 1.84744,-0.075 0.0649,-3.96057 0.0649,-3.96058 -0.007,4.02167 -0.007,4.02166 -1.905,0.0139 -1.905,0.0139 z m 5.9773,-19.84946 c -3e-5,-6.51934 0.0268,-9.21691 0.0597,-5.99462 0.0328,3.2223 0.0329,8.5563 6e-5,11.85334 -0.0328,3.29703 -0.0597,0.66061 -0.0597,-5.85872 z m -34.858068,7.99287 c 0.61509,-0.0429 1.56759,-0.0424 2.116667,0.001 0.549076,0.0434 0.04582,0.0785 -1.118346,0.078 -1.164166,-5.6e-4 -1.613411,-0.0361 -0.998321,-0.079 z m 18.960458,-1.96037 c 0,-1.10596 0.0357,-1.5584 0.0793,-1.00542 0.0436,0.55298 0.0436,1.45785 0,2.01083 -0.0436,0.55298 -0.0793,0.10054 -0.0793,-1.00541 z m -26.047392,-2.06293 c 1.141109,-0.0381 2.950859,-0.038 4.021666,3.7e-4 1.070808,0.0383 0.137173,0.0695 -2.074744,0.0693 -2.211917,-2.1e-4 -3.088032,-0.0316 -1.946922,-0.0697 z m 35.026932,-4.02004 c 0.61509,-0.0429 1.56759,-0.0424 2.11667,0.001 0.54908,0.0434 0.0458,0.0785 -1.11835,0.078 -1.16416,-5.5e-4 -1.61341,-0.0361 -0.99832,-0.079 z m -9.01191,-9.84495 -0.0439,-2.06375 2.06375,0.0439 2.06375,0.0439 -1.95008,0.0697 -1.95008,0.0697 -0.0697,1.95008 -0.0697,1.95008 z m 11.88571,-3.96875 c 0,-1.10596 0.0357,-1.5584 0.0793,-1.00542 0.0436,0.55298 0.0436,1.45786 0,2.01084 -0.0436,0.55298 -0.0793,0.10054 -0.0793,-1.00542 z m -35.760117,-5.92667 c 0,-2.1537 0.03143,-3.03477 0.06985,-1.95791 0.03842,1.07685 0.03842,2.83898 0,3.91583 -0.03842,1.07685 -0.06985,0.19579 -0.06985,-1.95792 z m -3.097014,-4.17796 c 0.61509,-0.0429 1.56759,-0.0424 2.116666,0.001 0.549077,0.0435 0.04582,0.0785 -1.118345,0.078 -1.164167,-5.5e-4 -1.613411,-0.0361 -0.998321,-0.079 z m 38.814691,-1.89496 c -0.0186,-1.06998 0.0376,-1.98988 0.12488,-2.04421 0.0873,-0.0543 0.13246,0.53537 0.10034,1.31043 -0.10178,2.45526 -0.19022,2.74343 -0.22522,0.73378 z m 4.0641,-4.08708 c 0,-1.10595 0.0357,-1.55839 0.0793,-1.00541 0.0436,0.55298 0.0436,1.45785 0,2.01083 -0.0436,0.55298 -0.0793,0.10054 -0.0793,-1.00542 z m -22.88339,-5.87058 c 0.55298,-0.0436 1.45786,-0.0436 2.01084,0 0.55298,0.0436 0.10054,0.0793 -1.00542,0.0793 -1.10596,0 -1.5584,-0.0357 -1.00542,-0.0793 z m -16.898017,-3.97192 c 2.03e-4,-2.21191 0.03157,-3.08803 0.0697,-1.94692 0.03813,1.14111 0.03796,2.95086 -3.7e-4,4.02167 -0.03834,1.07081 -0.06954,0.13717 -0.06933,-2.07475 z m 8.854687,-0.0497 c 0.55298,-0.0436 1.45785,-0.0436 2.01083,0 0.55298,0.0436 0.10054,0.0793 -1.00541,0.0793 -1.105962,0 -1.558399,-0.0357 -1.00542,-0.0793 z m 30.92672,-1.96108 c 0,-1.10596 0.0357,-1.5584 0.0793,-1.00542 0.0436,0.55298 0.0436,1.45786 0,2.01084 -0.0436,0.55298 -0.0793,0.10054 -0.0793,-1.00542 z m -51.837451,-2.16871 c -0.05903,-0.15383 -0.07889,-1.99099 -0.04413,-4.08257 l 0.06319,-3.80289 0.04771,3.96875 0.04771,3.96875 h 1.897057 1.897057 l 0.07416,-1.95791 0.07417,-1.95792 -0.01331,2.01083 -0.01331,2.01084 -1.961493,0.0609 c -1.474756,0.0458 -1.988127,-0.008 -2.068821,-0.21878 z m 51.837451,-5.87462 c 0,-1.10596 0.0357,-1.5584 0.0793,-1.00542 0.0436,0.55298 0.0436,1.45786 0,2.01083 -0.0436,0.55298 -0.0793,0.10055 -0.0793,-1.00541 z m -23.90071,-7.9375 0.0119,-1.905 6.0325,-0.005 6.0325,-0.005 -5.97169,0.0613 -5.97168,0.0613 -0.0727,1.8488 -0.0727,1.8488 z m 23.86749,0.16342 -0.0431,-1.95325 -3.96875,-0.0626 -3.96875,-0.0625 3.97539,-0.048 c 3.15187,-0.038 3.99783,0.0105 4.08371,0.23432 0.0596,0.15525 0.076,1.08394 0.0364,2.06375 l -0.0719,1.78147 z m -43.707215,-2.11898 3.855035,-0.0646 0.07341,-1.90089 0.07341,-1.90089 -0.01261,1.95845 -0.01261,1.95845 -3.915834,0.007 -3.915833,0.007 z m 33.813565,-4.01947 2.00375,-0.0726 0.072,-1.95034 0.072,-1.95035 -0.0115,2.01084 -0.0115,2.01083 -2.06424,0.0121 -2.06424,0.0121 z m 5.91713,-3.97331 c 2e-4,-2.211912 0.0316,-3.088027 0.0697,-1.946918 0.0381,1.141108 0.038,2.950858 -3.7e-4,4.021668 -0.0383,1.07081 -0.0695,0.13717 -0.0693,-2.07475 z m -23.91263,-2.116662 0.0119,-1.905 9.94833,-0.0031 9.94834,-0.0031 -9.8875,0.05809 -9.88751,0.05809 -0.0727,1.850015 -0.0727,1.850017 z"
         id="path2" /><path
         style="fill:#010100"
         d="m 86.967962,197.23625 -0.05546,-7.99042 -1.955348,-0.0608 -1.955349,-0.0608 -0.05548,-7.87667 -0.05549,-7.87668 -1.957916,-0.0609 -1.957917,-0.0609 V 161.40369 149.5583 h 1.905 1.905 v 9.94834 9.94833 h 2.010833 2.010834 v 2.01083 2.01084 H 90.828333 94.85 v 2.01083 2.01083 h 2.010833 2.010834 v -8.04333 -8.04333 h 1.905003 1.905 v 8.04658 8.04657 l 6.08541,-0.0562 6.08542,-0.0562 0.0609,-1.95792 0.0609,-1.95791 h 1.89706 1.89705 v -6.0325 -6.0325 h -1.905 -1.905 v -1.905 -1.905 h 1.905 1.905 v 1.905 1.905 h 2.01084 2.01083 v 2.01083 2.01083 h 2.01083 2.01084 v -3.91583 -3.91583 h 1.905 1.905 V 169.455 181.30833 H 128.61083 126.6 v 3.90759 3.9076 l -1.85208,0.0611 -1.85209,0.0612 -0.0609,1.95792 -0.0609,1.95792 h -4.01372 -4.01372 v 2.01083 2.01083 h -1.89706 -1.89706 l -0.0609,-1.95791 -0.0609,-1.95792 -10.00125,-0.055 -10.001247,-0.055 v 4.13132 4.13132 l 12.012087,-0.0547 12.01208,-0.0547 0.0609,-1.95791 0.0609,-1.95792 h 1.89706 1.89705 v 3.91583 3.91583 H 102.89588 87.023424 Z m 39.843708,-23.86542 v -4.1275 H 124.80083 122.79 v 4.1275 4.1275 h 2.01083 2.01084 z m -15.875,-9.94833 v -2.01083 h 1.905 1.905 v 2.01083 2.01083 h -1.905 -1.905 z m -8.04334,-4.02167 V 157.39 h -2.01083 -2.010833 v -2.01083 -2.01084 H 94.955833 91.04 v -3.68685 c 0,-2.02777 -0.05782,-3.83752 -0.128479,-4.02167 -0.103829,-0.27057 -0.489633,-0.33481 -2.010834,-0.33481 h -1.882354 v -1.905 -1.905 H 90.934167 94.85 v 2.01083 2.01084 h 2.010833 2.010834 v 2.01083 2.01083 h 9.948333 9.94833 v -2.11666 -2.11667 h -3.91583 -3.91583 v -1.905 -1.905 h -4.02167 -4.02167 v -2.01083 -2.01084 h 2.01084 2.01083 v -1.905 -1.905 h 1.905 1.905 v 1.905 1.905 h 2.01083 2.01084 v 2.01084 2.01083 h 5.92666 5.92667 v 1.905 1.905 h -1.905 -1.905 v 4.02167 4.02166 h -4.02167 -4.02166 v 2.01084 2.01083 h -4.02167 -4.02167 v 2.01083 2.01084 h -1.905 -1.905 z m 20.03778,-2.15194 c -0.0776,-0.0776 -0.14111,-0.93486 -0.14111,-1.905 V 153.58 h 1.905 1.905 v 1.905 1.905 h -1.76389 c -0.97014,0 -1.82739,-0.0635 -1.905,-0.14111 z m -39.934443,-9.80722 v -1.905 h 1.905 1.905 v 1.905 1.905 h -1.905 -1.905 z m 0,-7.9375 v -2.01084 h 1.905 1.905 v 2.01084 2.01083 h -1.905 -1.905 z m 43.956113,1.86972 c -0.0776,-0.0776 -0.14111,-0.98249 -0.14111,-2.01083 v -1.86973 h 1.905 1.905 v 2.01084 2.01083 h -1.76389 c -0.97014,0 -1.82739,-0.0635 -1.905,-0.14111 z M 78.975,131.56667 V 125.64 h 1.905 1.905 v 5.92667 5.92666 H 80.88 78.975 Z m 15.875,3.92377 v -2.01877 h -1.90033 -1.900329 l -0.05759,-3.96875 -0.05759,-3.96875 -3.96875,-0.0576 -3.96875,-0.0576 v -1.90033 -1.90033 H 88.923333 94.85 v -2.01083 -2.01083 h 2.010833 2.010834 v -2.01084 -2.01083 h 4.021663 4.02167 v -1.905 -1.905 h 5.92667 5.92666 v -2.01083 -2.01084 h 2.01084 2.01083 v 2.01084 2.01083 h 3.91583 3.91584 v 1.905 1.905 h 2.01083 2.01083 v 2.01083 2.01084 h -2.01083 -2.01083 v 1.905 1.905 H 126.70583 122.79 v 2.11666 2.11667 h 3.91583 3.91584 v 1.905 1.905 h -5.92667 -5.92667 v -5.92667 -5.92666 h -8.04333 -8.04333 v 1.905 1.905 h -1.905 -1.905003 v 4.1275 4.1275 h 1.905003 1.905 v 1.905 1.905 h -1.89706 -1.897057 l -0.06086,1.95791 -0.06086,1.95792 -1.957916,0.0609 -1.957917,0.0609 z m 35.98333,-1.91294 v -3.91583 h 1.905 1.905 v 3.91583 3.91583 h -1.905 -1.905 z m -19.89666,-8.04333 v -3.91584 h 1.905 1.905 v 3.91584 3.91583 h -1.905 -1.905 z M 74.953333,121.5125 v -3.91583 h 1.905 1.905 v 3.91583 3.91583 h -1.905 -1.905 z M 78.975,115.58583 V 113.575 h 1.905 1.905 v 2.01083 2.01084 H 80.88 78.975 Z m 4.021667,-3.91105 V 109.765 h 3.924074 3.924074 l -0.06116,1.85208 -0.06116,1.85209 -3.862917,0.0577 -3.862916,0.0577 z M 91.04,107.65658 v -1.91325 h 1.913241 1.913241 l -0.06116,1.85209 -0.06116,1.85208 -1.852084,0.0612 -1.852083,0.0612 z m 3.81,-4.02991 v -1.905 h 2.010833 2.010834 v 1.905 1.905 H 96.860833 94.85 Z m 28.15167,0.88013 c 0,-0.56367 -0.0624,-2.3258 -0.13865,-3.91583 l -0.13865,-2.890968 h 1.93781 1.93782 v 3.915828 3.91584 h -1.79917 -1.79916 z M 98.871667,99.605002 v -1.905 h 1.905003 1.905 v 1.905 1.904998 h -1.905 -1.905003 z m 4.021663,-4.021667 v -1.905 h 9.94834 9.94833 v 1.905 1.905 h -9.94833 -9.94834 z"
         id="path1" /></g></g></svg>
