<?xml version="1.0" encoding="UTF-8"?>
<svg id="Layer_1" data-name="Layer 1" xmlns="http://www.w3.org/2000/svg" viewBox="0 0 40 68">
  <defs>
    <style>
      .cls-1, .cls-2, .cls-3, .cls-4, .cls-5, .cls-6 {
        stroke-width: 0px;
      }

      .cls-1, .cls-5 {
        fill: #f7e5c1;
      }

      .cls-1, .cls-6 {
        fill-rule: evenodd;
      }

      .cls-3 {
        fill: #248fb3;
      }

      .cls-4 {
        fill: #875c20;
      }
    </style>
  </defs>
  <path class="cls-2" d="m12,24h4v8h-4v-8Z"/>
  <path class="cls-6" d="m12,0h16v4h8v8h4v16h-4v4h-4v12h4v8h-4v4h-4v8h-4v4h-12v-28h-4v-4h-4v-16H0v-8h4V4h8V0Zm0,4v4h-4v4h-4v8h4v16h20v-4h-4v-4h4v-4h4v4h4V12h-4v-4h-4v-4H12Zm20,24v4h-4v-4h4Zm-16,16v-4h4v4h-4Zm8,0v-4h4v4h4v8h-16v-4h12v-4h-4Zm0,20v-8h-8v8h8Z"/>
  <path class="cls-3" d="m28,40h-4v4h4v-4Z"/>
  <path class="cls-3" d="m28,48v-4h4v8h-8v-4h4Z"/>
  <path class="cls-3" d="m16,60v-4h8v4h-8Z"/>
  <path class="cls-4" d="m12,4h16v4h4v4h4v16h-4v-4h-4v4h-4v-4h-4v-4h-8v4h-4v-4h-4v-8h4v-4h4v-4Z"/>
  <path class="cls-1" d="m28,36H8v-12h4v-4h8v4h4v8h4v-4h4v4h-4v4Zm-16-12h4v8h-4v-8Z"/>
  <path class="cls-5" d="m16,40h4v4h-4v-4Z"/>
  <path class="cls-5" d="m16,48h8v4h-8v-4Z"/>
  <path class="cls-5" d="m16,60h8v4h-8v-4Z"/>
</svg>