<?xml version="1.0" encoding="UTF-8"?>
<svg id="Layer_1" data-name="Layer 1" xmlns="http://www.w3.org/2000/svg" viewBox="0 0 68 68">
  <defs>
    <style>
      .cls-1, .cls-2, .cls-3, .cls-4, .cls-5 {
        stroke-width: 0px;
      }

      .cls-2 {
        fill: #8968a6;
      }

      .cls-3 {
        fill: #4a381e;
      }

      .cls-4 {
        fill: #cfb686;
      }

      .cls-5 {
        fill-rule: evenodd;
      }
    </style>
  </defs>
  <path class="cls-1" d="m26,0h16v4h-16V0Z"/>
  <path class="cls-1" d="m18,12h4v-4h4v-4h-8v8Z"/>
  <path class="cls-1" d="m18,20v-8h-4v8h4Z"/>
  <path class="cls-1" d="m22,36v-16h-4v16h4Z"/>
  <path class="cls-5" d="m42,32v4h-20v4h4v28h12v-4h4v-8h4v-4h4v-8h4v-4h4v-12h-4V12h-4V4h-8v4h4v4h4v16h-4v-4h-4v4h-4v4h4Zm4,0h-4v-4h4v4Zm0,12v-12h4v-4h4v12h-4v4h-4Zm-4,0h4v8h-16v-4h12v-4Zm0,0h-4v-4h4v4Zm-4,20v-8h-8v8h8Zm-8-24v4h4v-4h-4Z"/>
  <path class="cls-1" d="m26,24h4v8h-4v-8Z"/>
  <path class="cls-2" d="m42,40h-4v4h4v-4Z"/>
  <path class="cls-2" d="m42,48v-4h4v8h-8v-4h4Z"/>
  <path class="cls-2" d="m30,60v-4h8v4h-8Z"/>
  <path class="cls-3" d="m26,4h16v4h4v4h4v16h-4v-4h-4v4h-4v8h-4v-4h-4v-12h-12v-8h4v-4h4v-4Z"/>
  <path class="cls-3" d="m50,28h4v12h-4v4h-4v-12h4v-4Z"/>
  <path class="cls-4" d="m30,20h-8v16h12v-4h-8v-8h4v-4Z"/>
  <path class="cls-4" d="m38,32v4h4v-4h4v-4h-4v4h-4Z"/>
  <path class="cls-4" d="m30,40h4v4h-4v-4Z"/>
  <path class="cls-4" d="m38,48v4h-8v-4h8Z"/>
  <path class="cls-4" d="m38,60v4h-8v-4h8Z"/>
</svg>