<?xml version="1.0" encoding="UTF-8"?>
<svg id="Layer_1" data-name="Layer 1" xmlns="http://www.w3.org/2000/svg" viewBox="0 0 40 68">
  <defs>
    <style>
      .cls-1, .cls-2, .cls-3, .cls-4, .cls-5, .cls-6 {
        stroke-width: 0px;
      }

      .cls-1, .cls-4 {
        fill: #dbb9a7;
      }

      .cls-1, .cls-6 {
        fill-rule: evenodd;
      }

      .cls-3 {
        fill: #b3a89f;
      }

      .cls-5 {
        fill: #7e3f8e;
      }
    </style>
  </defs>
  <path class="cls-2" d="m28,24h-4v8h4v-8Z"/>
  <path class="cls-6" d="m28,0H12v4H4v8H0v16h4v4h4v12h-4v8h4v4h4v8h4v4h12v-28h4v-4h4v-16h4v-8h-4V4h-8V0Zm0,4v4h4v4h4v8h-4v16H12v-4h4v-4h-4v-4h-4v4h-4V12h4v-4h4v-4h16ZM8,28v4h4v-4h-4Zm16,16v-4h-4v4h4Zm-8,0v-4h-4v4h-4v8h16v-4h-12v-4h4Zm0,20v-8h8v8h-8Z"/>
  <path class="cls-5" d="m12,40h4v4h-4v-4Z"/>
  <path class="cls-5" d="m12,48v-4h-4v8h8v-4h-4Z"/>
  <path class="cls-5" d="m24,60v-4h-8v4h8Z"/>
  <path class="cls-3" d="m28,4H12v4h-4v4h-4v16h4v-4h4v4h4v-4h4v-4h8v4h4v-4h4v-8h-4v-4h-4v-4Z"/>
  <path class="cls-1" d="m12,36h20v-12h-4v-4h-8v4h-4v8h-4v-4h-4v4h4v4Zm16-12h-4v8h4v-8Z"/>
  <path class="cls-4" d="m24,40h-4v4h4v-4Z"/>
  <path class="cls-4" d="m24,48h-8v4h8v-4Z"/>
  <path class="cls-4" d="m24,60h-8v4h8v-4Z"/>
</svg>